<svg xmlns="http://www.w3.org/2000/svg" width="112.691" height="102.669" viewBox="0 0 112.691 102.669">
  <g id="Vector_Smart_Object31" data-name="Vector Smart Object31" transform="translate(0 0.341)">
    <path id="Path_1918" data-name="Path 1918" d="M50.029,68.5H33.3a3.3,3.3,0,0,0,0,6.6H50.029a3.3,3.3,0,1,0,0-6.6Z" transform="translate(-23.397 -58.617)" fill="#e4447c"/>
    <path id="Path_1919" data-name="Path 1919" d="M50.029,188.5H33.3a3.3,3.3,0,0,0,0,6.6H50.029a3.3,3.3,0,1,0,0-6.6Z" transform="translate(-23.397 -152.205)" fill="#e4447c" opacity="0.3"/>
    <path id="Path_1920" data-name="Path 1920" d="M20.029,128.5H3.3a3.3,3.3,0,1,0,0,6.6H20.029a3.3,3.3,0,1,0,0-6.6Z" transform="translate(0 -105.411)" fill="#e4447c" opacity="0.6"/>
    <path id="Path_1921" data-name="Path 1921" d="M258.941,133.29H238.912V120.084a6.614,6.614,0,0,0-11.273-4.666L201.227,141.83a6.6,6.6,0,0,0,0,9.337l15.141,15.141-18.442,18.442a6.6,6.6,0,1,0,9.337,9.337l23.11-23.111a6.6,6.6,0,0,0,0-9.337L215.234,146.5l10.472-10.472v3.869a6.6,6.6,0,0,0,6.6,6.6h26.632a6.6,6.6,0,0,0,0-13.206Z" transform="translate(-152.853 -93.693)" fill="#fff"/>
    <path id="Path_1922" data-name="Path 1922" d="M179.424,47.072a6.6,6.6,0,0,0-8.331.825L152.935,66.055a6.6,6.6,0,1,0,9.337,9.337L176.6,61.061l4.829,3.478,6.449-6.451a13.136,13.136,0,0,1,3.742-2.569Z" transform="translate(-117.765 -41.04)" fill="#fff"/>
    <path id="Path_1923" data-name="Path 1923" d="M56.186,284.808a13.072,13.072,0,0,1-3.379-5.958L17.935,313.723a6.6,6.6,0,1,0,9.337,9.337l33.582-33.583Z" transform="translate(-12.479 -222.669)" fill="#fff"/>
    <circle id="Ellipse_8" data-name="Ellipse 8" cx="10" cy="10" r="10" transform="translate(79.345 -0.341)" fill="#fff"/>
  </g>
</svg>
