<svg xmlns="http://www.w3.org/2000/svg" width="56.893" height="42.463" viewBox="0 0 56.893 42.463">
  <g id="gym" transform="translate(0 -64.93)">
    <g id="Group_2009" data-name="Group 2009" transform="translate(0 64.93)">
      <g id="Group_2008" data-name="Group 2008" transform="translate(0 0)">
        <path id="Path_1937" data-name="Path 1937" d="M53.486,69.157A12.87,12.87,0,0,0,34.043,86.005l-2.562,2.361-4.934,1.367A10.979,10.979,0,0,0,22.33,81.11,11.628,11.628,0,1,0,.008,76.162c-.15,4.288,1.81,10.364,5.117,15.856a39.8,39.8,0,0,0,15.824,15.1l.541.273.59-.138c4.205-.986,12.039-5.534,16.119-9.36a71.268,71.268,0,0,0,6.566-7.162,12.873,12.873,0,0,0,8.72-21.576ZM35.92,95.463c-3.495,3.277-10.2,7.263-14.024,8.393C9.134,97.09,3.118,82.612,3.34,76.279h0a8.295,8.295,0,1,1,15.411,4.533l-.872,1.457,1.473.845a7.661,7.661,0,0,1,3.858,6.919,14.92,14.92,0,0,1-.234,1.652l-.506,2.638,10.679-2.959L36.47,88.3a12.8,12.8,0,0,0,4.291,2.033A63.484,63.484,0,0,1,35.92,95.463ZM53.551,78.27a9.54,9.54,0,1,1-9.541-9.929q.2,0,.4.008a9.54,9.54,0,0,1,9.143,9.921Z" transform="translate(0 -64.93)" fill="#e4447c"/>
      </g>
    </g>
    <g id="Group_2011" data-name="Group 2011" transform="translate(39.292 73.153)">
      <g id="Group_2010" data-name="Group 2010" transform="translate(0 0)">
        <path id="Path_1938" data-name="Path 1938" d="M361.8,140.454a4.728,4.728,0,1,0-3.669,7.928c.066,0,.132,0,.2,0a4.728,4.728,0,0,0,3.472-7.932Zm-2.532,4.229a1.394,1.394,0,1,1-.946-2.419h.058a1.394,1.394,0,0,1,.888,2.418Z" transform="translate(-353.599 -138.93)" fill="#e4447c"/>
      </g>
    </g>
  </g>
</svg>
