<svg xmlns="http://www.w3.org/2000/svg" xmlns:xlink="http://www.w3.org/1999/xlink" width="24" height="24" viewBox="0 0 24 24">
  <defs>
    <clipPath id="clip-path">
      <rect width="24" height="24" fill="none"/>
    </clipPath>
  </defs>
  <g id="icons_dark_localization" data-name="icons/dark/localization" clip-path="url(#clip-path)">
    <rect id="bg" width="24" height="24" fill="none"/>
    <path id="path" d="M18.782,12.318a7.308,7.308,0,0,1-6.464,6.464v.9a.818.818,0,1,1-1.636,0v-.9a7.159,7.159,0,0,1-6.464-6.464h-.9a.818.818,0,1,1,0-1.636h.9a7.159,7.159,0,0,1,6.464-6.464v-.9a.818.818,0,1,1,1.636,0v.9a7.308,7.308,0,0,1,6.464,6.464h.9a.818.818,0,1,1,0,1.636ZM11.5,17.227A5.727,5.727,0,1,0,5.773,11.5,5.692,5.692,0,0,0,11.5,17.227Zm0-2.455A3.273,3.273,0,1,1,14.773,11.5,3.282,3.282,0,0,1,11.5,14.773Zm0-1.636A1.636,1.636,0,1,0,9.864,11.5,1.641,1.641,0,0,0,11.5,13.136Z" transform="translate(0.5 0.5)" fill="#e4447c"/>
  </g>
</svg>
