<svg xmlns="http://www.w3.org/2000/svg" width="25.029" height="24.664" viewBox="0 0 25.029 24.664">
  <g id="gym_3_" data-name="gym (3)" transform="translate(-56.856 -33.082) rotate(-43)">
    <g id="Group_2016" data-name="Group 2016" transform="translate(9.122 73.585)">
      <path id="Path_1946" data-name="Path 1946" d="M19.893,66.776h-.925a1.372,1.372,0,0,0-.463.085V65.388A1.39,1.39,0,0,0,17.117,64h-.925A1.39,1.39,0,0,0,14.8,65.388v3.238H6.477V65.388A1.39,1.39,0,0,0,5.089,64H4.164a1.39,1.39,0,0,0-1.388,1.388v1.473a1.372,1.372,0,0,0-.463-.085H1.388A1.39,1.39,0,0,0,0,68.164v5.552A1.39,1.39,0,0,0,1.388,75.1h.925a1.372,1.372,0,0,0,.463-.085v1.473a1.39,1.39,0,0,0,1.388,1.388h.925a1.39,1.39,0,0,0,1.388-1.388V73.253H14.8v3.238a1.39,1.39,0,0,0,1.388,1.388h.925a1.39,1.39,0,0,0,1.388-1.388V75.018a1.372,1.372,0,0,0,.463.085h.925a1.39,1.39,0,0,0,1.388-1.388V68.164A1.39,1.39,0,0,0,19.893,66.776ZM2.776,73.715a.463.463,0,0,1-.463.463H1.388a.463.463,0,0,1-.463-.463V68.164a.463.463,0,0,1,.463-.463h.925a.463.463,0,0,1,.463.463Zm2.776,2.776a.463.463,0,0,1-.463.463H4.164a.463.463,0,0,1-.463-.463v-11.1a.463.463,0,0,1,.463-.463h.925a.463.463,0,0,1,.463.463ZM14.8,72.327H6.477V69.552H14.8Zm2.776-4.164v8.327a.463.463,0,0,1-.463.463h-.925a.463.463,0,0,1-.463-.463v-11.1a.463.463,0,0,1,.463-.463h.925a.463.463,0,0,1,.463.463Zm2.776,5.552a.463.463,0,0,1-.463.463h-.925a.463.463,0,0,1-.463-.463V68.164a.463.463,0,0,1,.463-.463h.925a.463.463,0,0,1,.463.463Z" transform="translate(0 -64)" fill="#78849e"/>
    </g>
  </g>
</svg>
