<svg xmlns="http://www.w3.org/2000/svg" width="50.09" height="50.089" viewBox="0 0 50.09 50.089">
  <g id="gym_2_" data-name="gym (2)" transform="translate(0 -0.002)">
    <g id="Group_2013" data-name="Group 2013" transform="translate(11.74 5.872)">
      <g id="Group_2012" data-name="Group 2012">
        <path id="Path_1941" data-name="Path 1941" d="M124.4,60a4.4,4.4,0,1,0,4.4,4.4A4.407,4.407,0,0,0,124.4,60Zm0,5.87A1.467,1.467,0,1,1,125.87,64.4,1.469,1.469,0,0,1,124.4,65.867Z" transform="translate(-120 -59.997)" fill="#e4447c"/>
      </g>
    </g>
    <g id="Group_2015" data-name="Group 2015" transform="translate(0 0.002)">
      <g id="Group_2014" data-name="Group 2014">
        <path id="Path_1942" data-name="Path 1942" d="M45.687,32.482a4.378,4.378,0,0,0-1.623.311,4.4,4.4,0,0,0-8.65,1.156v1.467h-4.9a16.519,16.519,0,0,0,1.77-7.435,16.313,16.313,0,0,0-6.862-13.306,10.494,10.494,0,0,0,.5-7.618A10.073,10.073,0,0,0,19.377.5,10.286,10.286,0,0,0,6.861,14.676,16.344,16.344,0,0,0,5.546,40.257,4.328,4.328,0,0,0,8.4,41.287H11.74v1.467a4.4,4.4,0,0,0,6.025,4.091,4.4,4.4,0,0,0,8.65-1.156V44.222h9v1.467a4.4,4.4,0,0,0,8.65,1.156,4.4,4.4,0,0,0,6.025-4.091v-5.87A4.407,4.407,0,0,0,45.687,32.482ZM17.61,42.754a1.467,1.467,0,1,1-2.935,0v-5.87a1.467,1.467,0,1,1,2.935,0Zm5.87,2.935a1.467,1.467,0,1,1-2.935,0V33.949a1.467,1.467,0,1,1,2.935,0ZM22.012,29.547a4.41,4.41,0,0,0-4.247,3.246,4.4,4.4,0,0,0-6.025,4.091v1.467H8.4a1.421,1.421,0,0,1-.925-.308,13.4,13.4,0,0,1,2.082-21.61,1.468,1.468,0,0,0,.486-2.088A7.291,7.291,0,0,1,8.8,10.274,7.367,7.367,0,0,1,18.5,3.3a7.1,7.1,0,0,1,4.611,4.62,7.4,7.4,0,0,1-.873,6.421,1.468,1.468,0,0,0,.486,2.088,13.43,13.43,0,0,1,4.392,18.983h-.707V33.949A4.407,4.407,0,0,0,22.012,29.547Zm13.4,11.74h-9V38.352h9Zm5.87,4.4a1.467,1.467,0,1,1-2.935,0V33.949a1.467,1.467,0,1,1,2.935,0Zm5.87-2.935a1.467,1.467,0,1,1-2.935,0v-5.87a1.467,1.467,0,0,1,2.935,0Z" transform="translate(0 -0.002)" fill="#e4447c"/>
      </g>
    </g>
  </g>
</svg>
