<svg xmlns="http://www.w3.org/2000/svg" width="50" height="56.637" viewBox="0 0 50 56.637">
  <g id="gym_1_" data-name="gym (1)" transform="translate(-30)">
    <path id="Path_1939" data-name="Path 1939" d="M301.178,338.022a6.843,6.843,0,1,0,6.843-6.843A6.851,6.851,0,0,0,301.178,338.022Zm10.288,0a3.445,3.445,0,1,1-3.445-3.445A3.449,3.449,0,0,1,311.466,338.022Z" transform="translate(-241.661 -295.025)" fill="#e4447c"/>
    <path id="Path_1940" data-name="Path 1940" d="M80,19.913V13.275H76.681v3.319h-18.3v3.319h4.885l-1.3,10.949-11.8,3.972L47.2,9.956h4.216V6.638H36.741a3.426,3.426,0,0,1-3.422-3.422V0H30V3.215a6.748,6.748,0,0,0,6.741,6.741h.478l3.346,28.106-.851.286a9.39,9.39,0,0,0,2.994,18.289H66.685A13.33,13.33,0,0,0,80,43.322a13.172,13.172,0,0,0-5.545-10.813,13.576,13.576,0,0,0-2.535-1.438l1.329-11.158H80ZM40.561,9.956h3.3l3.09,25.958-3.169,1.066Zm36.12,33.366a10.008,10.008,0,0,1-10,10H42.709a6.071,6.071,0,0,1-1.936-11.825L63.5,33.847a10.084,10.084,0,0,1,3.22-.533,10.02,10.02,0,0,1,9.965,10.008ZM68.689,30.141a13.086,13.086,0,0,0-3.286-.08l1.208-10.148h3.3Z" transform="translate(0)" fill="#e4447c"/>
  </g>
</svg>
