<svg xmlns="http://www.w3.org/2000/svg" width="20.473" height="19.192" viewBox="0 0 20.473 19.192">
  <g id="browser" transform="translate(0 -16.017)">
    <path id="Path_1943" data-name="Path 1943" d="M55.435,204.12h-13.6A1.841,1.841,0,0,1,40,202.28V192.6a.64.64,0,0,1,1.28,0v9.678a.56.56,0,0,0,.56.56h13.6a.56.56,0,0,0,.56-.56V192.6a.64.64,0,0,1,1.28,0v9.678A1.841,1.841,0,0,1,55.435,204.12Z" transform="translate(-38.4 -168.91)" fill="#78849e"/>
    <path id="Path_1944" data-name="Path 1944" d="M19.834,25.931a.638.638,0,0,1-.452-.187l-7.957-7.957a1.681,1.681,0,0,0-2.375,0L1.092,25.744a.64.64,0,0,1-.9-.9l7.957-7.957a2.962,2.962,0,0,1,4.185,0l7.957,7.957a.64.64,0,0,1-.452,1.092Z" transform="translate(0)" fill="#78849e"/>
    <path id="Path_1945" data-name="Path 1945" d="M181.758,296.3H176.64a.64.64,0,0,1-.64-.64v-5.678a2,2,0,0,1,2-2h2.4a2,2,0,0,1,2,2v5.678A.64.64,0,0,1,181.758,296.3Zm-4.479-1.28h3.839v-5.038a.721.721,0,0,0-.72-.72H178a.721.721,0,0,0-.72.72Z" transform="translate(-168.962 -261.091)" fill="#78849e"/>
  </g>
</svg>
