<svg xmlns="http://www.w3.org/2000/svg" width="19.268" height="50.96" viewBox="0 0 19.268 50.96">
  <g id="noun_Male_409504" transform="translate(-212.4 -48.3)">
    <g id="Group_1999" data-name="Group 1999" transform="translate(212.4 48.3)">
      <path id="Path_1926" data-name="Path 1926" d="M249.428,61.356a6.528,6.528,0,1,1,6.528-6.528A6.535,6.535,0,0,1,249.428,61.356Zm0-10.306a3.788,3.788,0,1,0,3.788,3.788A3.794,3.794,0,0,0,249.428,51.05Z" transform="translate(-239.794 -48.3)" fill="#fff"/>
      <path id="Path_1927" data-name="Path 1927" d="M224.977,226.8h-5.886a1.374,1.374,0,0,1-1.365-1.263L216.586,210.9a.51.51,0,0,0-.509-.468h-2.312a1.365,1.365,0,0,1-1.365-1.365v-17.4a1.365,1.365,0,0,1,1.365-1.365H230.3a1.365,1.365,0,0,1,1.365,1.365v17.394a1.365,1.365,0,0,1-1.365,1.365h-2.312a.51.51,0,0,0-.509.468l-1.141,14.634A1.368,1.368,0,0,1,224.977,226.8Zm-4.145-2.739h2.4a.51.51,0,0,0,.509-.468l1.141-14.634a1.367,1.367,0,0,1,1.365-1.263h2.179a.511.511,0,0,0,.509-.509V193.549a.511.511,0,0,0-.509-.509H215.649a.511.511,0,0,0-.509.509v13.636a.511.511,0,0,0,.509.509h2.179a1.374,1.374,0,0,1,1.365,1.263l1.141,14.634A.494.494,0,0,0,220.832,224.059Z" transform="translate(-212.4 -175.839)" fill="#fff"/>
    </g>
  </g>
</svg>
