<svg xmlns="http://www.w3.org/2000/svg" width="24.044" height="50.325" viewBox="0 0 24.044 50.325">
  <g id="Group_2003" data-name="Group 2003" transform="translate(-30 -5)">
    <path id="Path_1929" data-name="Path 1929" d="M49.938,76.456a28.374,28.374,0,0,0-2.125,6.766v.224c0,1.007-1.733,1.677-4.194,1.677s-4.194-.671-4.194-1.677v-.168A31.289,31.289,0,0,0,37.3,76.456H36.183A3.438,3.438,0,0,1,35.4,76.4a29.9,29.9,0,0,1,2.4,7.157c-.056,1.566,1.51,3.243,5.759,3.243s5.815-1.677,5.871-3.243a28.135,28.135,0,0,1,2.4-7.157,3.692,3.692,0,0,1-.783.056H49.938Z" transform="translate(-2.381 -31.476)" fill="#78849e"/>
    <path id="Path_1930" data-name="Path 1930" d="M37.1,15.345a29.766,29.766,0,0,0,2.125-6.822V8.355c0-1.006,1.733-1.677,4.194-1.677s4.194.671,4.194,1.677v.224a30.547,30.547,0,0,0,2.125,6.766h1.118a3.439,3.439,0,0,1,.783.056,30.725,30.725,0,0,1-2.4-7.157C49.291,6.677,47.725,5,43.476,5S37.66,6.677,37.6,8.243A28.135,28.135,0,0,1,35.2,15.4a3.692,3.692,0,0,1,.783-.056Z" transform="translate(-2.292)" fill="#78849e"/>
    <path id="Path_1931" data-name="Path 1931" d="M53.205,32.092h-.839V30.135A3.627,3.627,0,0,0,48.732,26.5h-15.1A3.627,3.627,0,0,0,30,30.135V49.146a3.627,3.627,0,0,0,3.635,3.635h15.1a3.627,3.627,0,0,0,3.635-3.635V47.189a.86.86,0,0,0,.839-.839V40.759a.86.86,0,0,0-.839-.839v-2.8h.839a.86.86,0,0,0,.839-.839V32.93A.86.86,0,0,0,53.205,32.092ZM50.689,49.146A1.981,1.981,0,0,1,48.732,51.1h-15.1a1.981,1.981,0,0,1-1.957-1.957V30.135a1.981,1.981,0,0,1,1.957-1.957h15.1a1.981,1.981,0,0,1,1.957,1.957V49.146Z" transform="translate(0 -9.478)" fill="#78849e"/>
  </g>
</svg>
